<mxfile host="app.diagrams.net" agent="Mozilla/5.0 (Windows NT 10.0; Win64; x64) AppleWebKit/537.36 (KHTML, like Gecko) Chrome/134.0.0.0 Safari/537.36 Edg/134.0.0.0" version="26.1.1">
  <diagram name="第 1 页" id="dIg31AuSRGhhQoN508RZ">
    <mxGraphModel dx="1040" dy="1013" grid="1" gridSize="10" guides="1" tooltips="1" connect="1" arrows="1" fold="1" page="1" pageScale="1" pageWidth="827" pageHeight="1169" math="0" shadow="0">
      <root>
        <mxCell id="0" />
        <mxCell id="1" parent="0" />
        <mxCell id="SAo0T7gmhGIYfKUNf4ec-3" value="" style="html=1;whiteSpace=wrap;" parent="1" vertex="1">
          <mxGeometry x="170" y="110" width="810" height="820" as="geometry" />
        </mxCell>
        <mxCell id="SAo0T7gmhGIYfKUNf4ec-5" value="用户" style="shape=umlActor;verticalLabelPosition=bottom;verticalAlign=top;html=1;" parent="1" vertex="1">
          <mxGeometry x="1040" y="295" width="30" height="60" as="geometry" />
        </mxCell>
        <mxCell id="SAo0T7gmhGIYfKUNf4ec-6" value="登录" style="ellipse;whiteSpace=wrap;html=1;" parent="1" vertex="1">
          <mxGeometry x="680" y="400" width="140" height="70" as="geometry" />
        </mxCell>
        <mxCell id="SAo0T7gmhGIYfKUNf4ec-7" value="加入活动" style="ellipse;whiteSpace=wrap;html=1;" parent="1" vertex="1">
          <mxGeometry x="810" y="840" width="140" height="70" as="geometry" />
        </mxCell>
        <mxCell id="SAo0T7gmhGIYfKUNf4ec-8" value="创建活动" style="ellipse;whiteSpace=wrap;html=1;" parent="1" vertex="1">
          <mxGeometry x="180" y="130" width="140" height="70" as="geometry" />
        </mxCell>
        <mxCell id="SAo0T7gmhGIYfKUNf4ec-9" value="评估信用等级" style="ellipse;whiteSpace=wrap;html=1;" parent="1" vertex="1">
          <mxGeometry x="680" y="500" width="140" height="70" as="geometry" />
        </mxCell>
        <mxCell id="6mHeDIkiS--_ZNNADFWJ-5" value="聊天室" style="ellipse;whiteSpace=wrap;html=1;" parent="1" vertex="1">
          <mxGeometry x="230" y="440" width="140" height="70" as="geometry" />
        </mxCell>
        <mxCell id="6mHeDIkiS--_ZNNADFWJ-6" value="根据用户匹配度、活动热度、活动创建时间排序&lt;div&gt;（三种泛化）&lt;/div&gt;" style="ellipse;whiteSpace=wrap;html=1;" parent="1" vertex="1">
          <mxGeometry x="190" y="680" width="259" height="125" as="geometry" />
        </mxCell>
        <mxCell id="6mHeDIkiS--_ZNNADFWJ-7" value="按活动活动标签搜索" style="ellipse;whiteSpace=wrap;html=1;" parent="1" vertex="1">
          <mxGeometry x="640" y="720" width="140" height="70" as="geometry" />
        </mxCell>
        <mxCell id="6mHeDIkiS--_ZNNADFWJ-8" value="匹配推送" style="ellipse;whiteSpace=wrap;html=1;" parent="1" vertex="1">
          <mxGeometry x="344" y="840" width="140" height="70" as="geometry" />
        </mxCell>
        <mxCell id="6mHeDIkiS--_ZNNADFWJ-9" value="活动提醒" style="ellipse;whiteSpace=wrap;html=1;" parent="1" vertex="1">
          <mxGeometry x="650" y="840" width="140" height="70" as="geometry" />
        </mxCell>
        <mxCell id="6mHeDIkiS--_ZNNADFWJ-17" value="按用户特征搜索" style="ellipse;whiteSpace=wrap;html=1;" parent="1" vertex="1">
          <mxGeometry x="480" y="720" width="140" height="70" as="geometry" />
        </mxCell>
        <mxCell id="6mHeDIkiS--_ZNNADFWJ-18" value="注册" style="ellipse;whiteSpace=wrap;html=1;" parent="1" vertex="1">
          <mxGeometry x="680" y="310" width="140" height="70" as="geometry" />
        </mxCell>
        <mxCell id="6mHeDIkiS--_ZNNADFWJ-19" value="设置个人信息" style="ellipse;whiteSpace=wrap;html=1;" parent="1" vertex="1">
          <mxGeometry x="680" y="210" width="140" height="70" as="geometry" />
        </mxCell>
        <mxCell id="6mHeDIkiS--_ZNNADFWJ-21" value="用户" style="shape=umlActor;verticalLabelPosition=bottom;verticalAlign=top;html=1;" parent="1" vertex="1">
          <mxGeometry x="555" y="960" width="30" height="60" as="geometry" />
        </mxCell>
        <mxCell id="6mHeDIkiS--_ZNNADFWJ-27" value="" style="endArrow=none;html=1;rounded=0;entryX=0.486;entryY=0.372;entryDx=0;entryDy=0;entryPerimeter=0;exitX=1;exitY=0;exitDx=0;exitDy=0;" parent="1" source="SAo0T7gmhGIYfKUNf4ec-6" target="SAo0T7gmhGIYfKUNf4ec-5" edge="1">
          <mxGeometry width="50" height="50" relative="1" as="geometry">
            <mxPoint x="590" y="400" as="sourcePoint" />
            <mxPoint x="640" y="350" as="targetPoint" />
          </mxGeometry>
        </mxCell>
        <mxCell id="6mHeDIkiS--_ZNNADFWJ-28" value="" style="endArrow=none;html=1;rounded=0;exitX=1;exitY=0;exitDx=0;exitDy=0;entryX=0.506;entryY=0.362;entryDx=0;entryDy=0;entryPerimeter=0;" parent="1" source="6mHeDIkiS--_ZNNADFWJ-18" target="SAo0T7gmhGIYfKUNf4ec-5" edge="1">
          <mxGeometry width="50" height="50" relative="1" as="geometry">
            <mxPoint x="430" y="130" as="sourcePoint" />
            <mxPoint x="480" y="80" as="targetPoint" />
          </mxGeometry>
        </mxCell>
        <mxCell id="6mHeDIkiS--_ZNNADFWJ-31" value="搜索活动" style="ellipse;whiteSpace=wrap;html=1;" parent="1" vertex="1">
          <mxGeometry x="500" y="840" width="140" height="70" as="geometry" />
        </mxCell>
        <mxCell id="6mHeDIkiS--_ZNNADFWJ-46" value="" style="endArrow=none;html=1;rounded=0;entryX=0;entryY=0.5;entryDx=0;entryDy=0;exitX=1;exitY=0.3333333333333333;exitDx=0;exitDy=0;exitPerimeter=0;" parent="1" source="6mHeDIkiS--_ZNNADFWJ-44" target="SAo0T7gmhGIYfKUNf4ec-8" edge="1">
          <mxGeometry width="50" height="50" relative="1" as="geometry">
            <mxPoint x="120" y="360" as="sourcePoint" />
            <mxPoint x="170" y="310" as="targetPoint" />
          </mxGeometry>
        </mxCell>
        <mxCell id="6mHeDIkiS--_ZNNADFWJ-48" value="退出活动" style="ellipse;whiteSpace=wrap;html=1;" parent="1" vertex="1">
          <mxGeometry x="180" y="840" width="140" height="70" as="geometry" />
        </mxCell>
        <mxCell id="6mHeDIkiS--_ZNNADFWJ-49" value="接受加入活动申请" style="ellipse;whiteSpace=wrap;html=1;" parent="1" vertex="1">
          <mxGeometry x="380" y="280" width="140" height="70" as="geometry" />
        </mxCell>
        <mxCell id="6mHeDIkiS--_ZNNADFWJ-51" value="拒绝加入活动申请" style="ellipse;whiteSpace=wrap;html=1;" parent="1" vertex="1">
          <mxGeometry x="380" y="380" width="140" height="70" as="geometry" />
        </mxCell>
        <mxCell id="6mHeDIkiS--_ZNNADFWJ-52" value="" style="endArrow=none;html=1;rounded=0;exitX=1;exitY=0.3333333333333333;exitDx=0;exitDy=0;exitPerimeter=0;entryX=0;entryY=0.5;entryDx=0;entryDy=0;" parent="1" source="6mHeDIkiS--_ZNNADFWJ-44" target="6mHeDIkiS--_ZNNADFWJ-49" edge="1">
          <mxGeometry width="50" height="50" relative="1" as="geometry">
            <mxPoint x="120" y="340" as="sourcePoint" />
            <mxPoint x="170" y="290" as="targetPoint" />
          </mxGeometry>
        </mxCell>
        <mxCell id="6mHeDIkiS--_ZNNADFWJ-53" value="" style="endArrow=none;html=1;rounded=0;entryX=0;entryY=0.5;entryDx=0;entryDy=0;exitX=1;exitY=0.3333333333333333;exitDx=0;exitDy=0;exitPerimeter=0;" parent="1" source="6mHeDIkiS--_ZNNADFWJ-44" target="6mHeDIkiS--_ZNNADFWJ-51" edge="1">
          <mxGeometry width="50" height="50" relative="1" as="geometry">
            <mxPoint x="80" y="290" as="sourcePoint" />
            <mxPoint x="170" y="360" as="targetPoint" />
          </mxGeometry>
        </mxCell>
        <mxCell id="6mHeDIkiS--_ZNNADFWJ-44" value="用户" style="shape=umlActor;verticalLabelPosition=bottom;verticalAlign=top;html=1;" parent="1" vertex="1">
          <mxGeometry x="50" y="280" width="30" height="60" as="geometry" />
        </mxCell>
        <mxCell id="6mHeDIkiS--_ZNNADFWJ-60" value="" style="endArrow=none;html=1;rounded=0;exitX=0;exitY=0.5;exitDx=0;exitDy=0;entryX=1;entryY=0.3333333333333333;entryDx=0;entryDy=0;entryPerimeter=0;" parent="1" source="6mHeDIkiS--_ZNNADFWJ-5" target="6AMmz0JQdBcwEtzWQx8X-14" edge="1">
          <mxGeometry width="50" height="50" relative="1" as="geometry">
            <mxPoint x="60" y="290" as="sourcePoint" />
            <mxPoint x="120" y="460" as="targetPoint" />
          </mxGeometry>
        </mxCell>
        <mxCell id="6mHeDIkiS--_ZNNADFWJ-63" value="" style="endArrow=none;html=1;rounded=0;entryX=0.5;entryY=1;entryDx=0;entryDy=0;exitX=0.5;exitY=0;exitDx=0;exitDy=0;exitPerimeter=0;" parent="1" source="6mHeDIkiS--_ZNNADFWJ-21" target="6mHeDIkiS--_ZNNADFWJ-9" edge="1">
          <mxGeometry width="50" height="50" relative="1" as="geometry">
            <mxPoint x="515" y="470" as="sourcePoint" />
            <mxPoint x="530" y="430" as="targetPoint" />
          </mxGeometry>
        </mxCell>
        <mxCell id="6mHeDIkiS--_ZNNADFWJ-64" value="" style="endArrow=none;html=1;rounded=0;entryX=0.5;entryY=1;entryDx=0;entryDy=0;exitX=0.5;exitY=0.5;exitDx=0;exitDy=0;exitPerimeter=0;" parent="1" source="6mHeDIkiS--_ZNNADFWJ-21" target="SAo0T7gmhGIYfKUNf4ec-7" edge="1">
          <mxGeometry width="50" height="50" relative="1" as="geometry">
            <mxPoint x="590" y="850" as="sourcePoint" />
            <mxPoint x="640" y="800" as="targetPoint" />
          </mxGeometry>
        </mxCell>
        <mxCell id="6mHeDIkiS--_ZNNADFWJ-65" value="" style="endArrow=none;html=1;rounded=0;entryX=0.5;entryY=0.5;entryDx=0;entryDy=0;entryPerimeter=0;exitX=0.55;exitY=1.005;exitDx=0;exitDy=0;exitPerimeter=0;" parent="1" source="6mHeDIkiS--_ZNNADFWJ-48" target="6mHeDIkiS--_ZNNADFWJ-21" edge="1">
          <mxGeometry width="50" height="50" relative="1" as="geometry">
            <mxPoint x="330" y="880" as="sourcePoint" />
            <mxPoint x="380" y="830" as="targetPoint" />
          </mxGeometry>
        </mxCell>
        <mxCell id="6mHeDIkiS--_ZNNADFWJ-66" value="" style="endArrow=none;html=1;rounded=0;entryX=0.5;entryY=0.5;entryDx=0;entryDy=0;entryPerimeter=0;exitX=0.5;exitY=1;exitDx=0;exitDy=0;" parent="1" source="6mHeDIkiS--_ZNNADFWJ-31" target="6mHeDIkiS--_ZNNADFWJ-21" edge="1">
          <mxGeometry width="50" height="50" relative="1" as="geometry">
            <mxPoint x="620" y="870" as="sourcePoint" />
            <mxPoint x="670" y="820" as="targetPoint" />
          </mxGeometry>
        </mxCell>
        <mxCell id="6mHeDIkiS--_ZNNADFWJ-67" value="" style="endArrow=none;html=1;rounded=0;exitX=0.898;exitY=0.252;exitDx=0;exitDy=0;exitPerimeter=0;entryX=0.5;entryY=0.5;entryDx=0;entryDy=0;entryPerimeter=0;" parent="1" source="SAo0T7gmhGIYfKUNf4ec-9" target="SAo0T7gmhGIYfKUNf4ec-5" edge="1">
          <mxGeometry width="50" height="50" relative="1" as="geometry">
            <mxPoint x="700" y="520" as="sourcePoint" />
            <mxPoint x="960" y="160" as="targetPoint" />
          </mxGeometry>
        </mxCell>
        <mxCell id="6mHeDIkiS--_ZNNADFWJ-68" value="" style="endArrow=none;html=1;rounded=0;entryX=0.5;entryY=0.35;entryDx=0;entryDy=0;entryPerimeter=0;exitX=1;exitY=0.5;exitDx=0;exitDy=0;" parent="1" source="6mHeDIkiS--_ZNNADFWJ-19" target="SAo0T7gmhGIYfKUNf4ec-5" edge="1">
          <mxGeometry width="50" height="50" relative="1" as="geometry">
            <mxPoint x="510" y="140" as="sourcePoint" />
            <mxPoint x="560" y="90" as="targetPoint" />
          </mxGeometry>
        </mxCell>
        <mxCell id="6mHeDIkiS--_ZNNADFWJ-69" value="删除活动" style="ellipse;whiteSpace=wrap;html=1;" parent="1" vertex="1">
          <mxGeometry x="190" y="220" width="140" height="70" as="geometry" />
        </mxCell>
        <mxCell id="6mHeDIkiS--_ZNNADFWJ-70" value="" style="endArrow=none;html=1;rounded=0;entryX=1;entryY=0.3333333333333333;entryDx=0;entryDy=0;entryPerimeter=0;exitX=0;exitY=0.5;exitDx=0;exitDy=0;" parent="1" source="6mHeDIkiS--_ZNNADFWJ-69" target="6mHeDIkiS--_ZNNADFWJ-44" edge="1">
          <mxGeometry width="50" height="50" relative="1" as="geometry">
            <mxPoint x="50" y="460" as="sourcePoint" />
            <mxPoint x="100" y="410" as="targetPoint" />
          </mxGeometry>
        </mxCell>
        <mxCell id="6mHeDIkiS--_ZNNADFWJ-72" value="" style="endArrow=block;startArrow=none;endFill=0;startFill=0;endSize=8;html=1;verticalAlign=bottom;dashed=1;labelBackgroundColor=none;rounded=0;entryX=0.5;entryY=0;entryDx=0;entryDy=0;exitX=0.5;exitY=1;exitDx=0;exitDy=0;" parent="1" source="6mHeDIkiS--_ZNNADFWJ-17" target="6mHeDIkiS--_ZNNADFWJ-31" edge="1">
          <mxGeometry width="160" relative="1" as="geometry">
            <mxPoint x="470" y="660" as="sourcePoint" />
            <mxPoint x="630" y="660" as="targetPoint" />
          </mxGeometry>
        </mxCell>
        <mxCell id="6mHeDIkiS--_ZNNADFWJ-73" value="" style="endArrow=block;startArrow=none;endFill=0;startFill=0;endSize=8;html=1;verticalAlign=bottom;dashed=1;labelBackgroundColor=none;rounded=0;exitX=0.5;exitY=1;exitDx=0;exitDy=0;entryX=0.5;entryY=0;entryDx=0;entryDy=0;" parent="1" source="6mHeDIkiS--_ZNNADFWJ-7" target="6mHeDIkiS--_ZNNADFWJ-31" edge="1">
          <mxGeometry width="160" relative="1" as="geometry">
            <mxPoint x="520" y="660" as="sourcePoint" />
            <mxPoint x="500" y="680" as="targetPoint" />
          </mxGeometry>
        </mxCell>
        <mxCell id="6AMmz0JQdBcwEtzWQx8X-1" value="" style="endArrow=none;html=1;rounded=0;entryX=0.607;entryY=1.01;entryDx=0;entryDy=0;entryPerimeter=0;exitX=0.25;exitY=0.1;exitDx=0;exitDy=0;exitPerimeter=0;" edge="1" parent="1" source="6mHeDIkiS--_ZNNADFWJ-21" target="6mHeDIkiS--_ZNNADFWJ-8">
          <mxGeometry width="50" height="50" relative="1" as="geometry">
            <mxPoint x="510" y="800" as="sourcePoint" />
            <mxPoint x="270" y="650" as="targetPoint" />
          </mxGeometry>
        </mxCell>
        <mxCell id="6AMmz0JQdBcwEtzWQx8X-3" value="查看活动详情" style="ellipse;whiteSpace=wrap;html=1;" vertex="1" parent="1">
          <mxGeometry x="810" y="720" width="140" height="70" as="geometry" />
        </mxCell>
        <mxCell id="6AMmz0JQdBcwEtzWQx8X-6" value="" style="endArrow=block;startArrow=none;endFill=0;startFill=0;endSize=8;html=1;verticalAlign=bottom;dashed=1;labelBackgroundColor=none;rounded=0;entryX=0;entryY=0;entryDx=0;entryDy=0;exitX=0.5;exitY=1;exitDx=0;exitDy=0;" edge="1" parent="1" source="6mHeDIkiS--_ZNNADFWJ-6" target="6mHeDIkiS--_ZNNADFWJ-8">
          <mxGeometry width="160" relative="1" as="geometry">
            <mxPoint x="90" y="620" as="sourcePoint" />
            <mxPoint x="250" y="620" as="targetPoint" />
          </mxGeometry>
        </mxCell>
        <mxCell id="6AMmz0JQdBcwEtzWQx8X-9" value="管理员" style="shape=umlActor;verticalLabelPosition=bottom;verticalAlign=top;html=1;" vertex="1" parent="1">
          <mxGeometry x="585" y="20" width="30" height="60" as="geometry" />
        </mxCell>
        <mxCell id="6AMmz0JQdBcwEtzWQx8X-10" value="审核活动" style="ellipse;whiteSpace=wrap;html=1;" vertex="1" parent="1">
          <mxGeometry x="380" y="130" width="140" height="70" as="geometry" />
        </mxCell>
        <mxCell id="6AMmz0JQdBcwEtzWQx8X-11" value="封禁违规用户" style="ellipse;whiteSpace=wrap;html=1;" vertex="1" parent="1">
          <mxGeometry x="555" y="130" width="140" height="70" as="geometry" />
        </mxCell>
        <mxCell id="6AMmz0JQdBcwEtzWQx8X-12" value="" style="endArrow=none;html=1;rounded=0;entryX=0;entryY=1;entryDx=0;entryDy=0;entryPerimeter=0;exitX=0.5;exitY=0;exitDx=0;exitDy=0;" edge="1" parent="1" source="6AMmz0JQdBcwEtzWQx8X-10" target="6AMmz0JQdBcwEtzWQx8X-9">
          <mxGeometry width="50" height="50" relative="1" as="geometry">
            <mxPoint x="430" y="130" as="sourcePoint" />
            <mxPoint x="480" y="80" as="targetPoint" />
          </mxGeometry>
        </mxCell>
        <mxCell id="6AMmz0JQdBcwEtzWQx8X-13" value="" style="endArrow=none;html=1;rounded=0;entryX=1;entryY=1;entryDx=0;entryDy=0;entryPerimeter=0;exitX=0.5;exitY=0;exitDx=0;exitDy=0;" edge="1" parent="1" source="6AMmz0JQdBcwEtzWQx8X-11" target="6AMmz0JQdBcwEtzWQx8X-9">
          <mxGeometry width="50" height="50" relative="1" as="geometry">
            <mxPoint x="580" y="140" as="sourcePoint" />
            <mxPoint x="630" y="90" as="targetPoint" />
          </mxGeometry>
        </mxCell>
        <mxCell id="6AMmz0JQdBcwEtzWQx8X-14" value="Actor" style="shape=umlActor;verticalLabelPosition=bottom;verticalAlign=top;html=1;" vertex="1" parent="1">
          <mxGeometry x="70" y="510" width="30" height="60" as="geometry" />
        </mxCell>
        <mxCell id="6AMmz0JQdBcwEtzWQx8X-15" value="评价" style="ellipse;whiteSpace=wrap;html=1;" vertex="1" parent="1">
          <mxGeometry x="350" y="500" width="140" height="70" as="geometry" />
        </mxCell>
        <mxCell id="6AMmz0JQdBcwEtzWQx8X-16" value="举报" style="ellipse;whiteSpace=wrap;html=1;" vertex="1" parent="1">
          <mxGeometry x="240" y="580" width="140" height="70" as="geometry" />
        </mxCell>
        <mxCell id="6AMmz0JQdBcwEtzWQx8X-17" value="" style="endArrow=none;html=1;rounded=0;entryX=1;entryY=0.3333333333333333;entryDx=0;entryDy=0;entryPerimeter=0;exitX=0;exitY=0.5;exitDx=0;exitDy=0;" edge="1" parent="1" source="6AMmz0JQdBcwEtzWQx8X-15" target="6AMmz0JQdBcwEtzWQx8X-14">
          <mxGeometry width="50" height="50" relative="1" as="geometry">
            <mxPoint x="100" y="580" as="sourcePoint" />
            <mxPoint x="150" y="530" as="targetPoint" />
          </mxGeometry>
        </mxCell>
        <mxCell id="6AMmz0JQdBcwEtzWQx8X-18" value="" style="endArrow=none;html=1;rounded=0;entryX=1;entryY=0.3333333333333333;entryDx=0;entryDy=0;entryPerimeter=0;exitX=0;exitY=0.5;exitDx=0;exitDy=0;" edge="1" parent="1" source="6AMmz0JQdBcwEtzWQx8X-16" target="6AMmz0JQdBcwEtzWQx8X-14">
          <mxGeometry width="50" height="50" relative="1" as="geometry">
            <mxPoint x="70" y="650" as="sourcePoint" />
            <mxPoint x="120" y="600" as="targetPoint" />
          </mxGeometry>
        </mxCell>
        <mxCell id="6AMmz0JQdBcwEtzWQx8X-21" value="&amp;lt;&amp;lt;include&amp;gt;&amp;gt;" style="html=1;verticalAlign=bottom;labelBackgroundColor=none;endArrow=open;endFill=0;dashed=1;rounded=0;entryX=0.5;entryY=1;entryDx=0;entryDy=0;exitX=0.5;exitY=0;exitDx=0;exitDy=0;" edge="1" parent="1" source="6mHeDIkiS--_ZNNADFWJ-49" target="6AMmz0JQdBcwEtzWQx8X-10">
          <mxGeometry width="160" relative="1" as="geometry">
            <mxPoint x="360" y="250" as="sourcePoint" />
            <mxPoint x="520" y="250" as="targetPoint" />
          </mxGeometry>
        </mxCell>
        <mxCell id="6AMmz0JQdBcwEtzWQx8X-26" value="&amp;lt;&amp;lt;include&amp;gt;&amp;gt;" style="html=1;verticalAlign=bottom;labelBackgroundColor=none;endArrow=open;endFill=0;dashed=1;rounded=0;entryX=0.5;entryY=1;entryDx=0;entryDy=0;exitX=0.5;exitY=0;exitDx=0;exitDy=0;" edge="1" parent="1" source="SAo0T7gmhGIYfKUNf4ec-7" target="6AMmz0JQdBcwEtzWQx8X-3">
          <mxGeometry width="160" relative="1" as="geometry">
            <mxPoint x="900" y="840" as="sourcePoint" />
            <mxPoint x="1060" y="840" as="targetPoint" />
          </mxGeometry>
        </mxCell>
        <mxCell id="6AMmz0JQdBcwEtzWQx8X-27" value="提醒" style="ellipse;whiteSpace=wrap;html=1;" vertex="1" parent="1">
          <mxGeometry x="540" y="550" width="140" height="70" as="geometry" />
        </mxCell>
        <mxCell id="6AMmz0JQdBcwEtzWQx8X-30" value="&amp;lt;&amp;lt;extend&amp;gt;&amp;gt;" style="html=1;verticalAlign=bottom;labelBackgroundColor=none;endArrow=open;endFill=0;dashed=1;rounded=0;entryX=1;entryY=1;entryDx=0;entryDy=0;" edge="1" parent="1" source="6AMmz0JQdBcwEtzWQx8X-27" target="6mHeDIkiS--_ZNNADFWJ-49">
          <mxGeometry width="160" relative="1" as="geometry">
            <mxPoint x="520" y="360" as="sourcePoint" />
            <mxPoint x="680" y="360" as="targetPoint" />
          </mxGeometry>
        </mxCell>
        <mxCell id="6AMmz0JQdBcwEtzWQx8X-31" value="&amp;lt;&amp;lt;extend&amp;gt;&amp;gt;" style="html=1;verticalAlign=bottom;labelBackgroundColor=none;endArrow=open;endFill=0;dashed=1;rounded=0;" edge="1" parent="1" source="6AMmz0JQdBcwEtzWQx8X-27" target="SAo0T7gmhGIYfKUNf4ec-7">
          <mxGeometry width="160" relative="1" as="geometry">
            <mxPoint x="1080" y="710" as="sourcePoint" />
            <mxPoint x="620" y="620" as="targetPoint" />
          </mxGeometry>
        </mxCell>
        <mxCell id="6AMmz0JQdBcwEtzWQx8X-33" value="&amp;lt;&amp;lt;include&amp;gt;&amp;gt;" style="html=1;verticalAlign=bottom;labelBackgroundColor=none;endArrow=open;endFill=0;dashed=1;rounded=0;entryX=0.244;entryY=0.135;entryDx=0;entryDy=0;exitX=1;exitY=0.5;exitDx=0;exitDy=0;entryPerimeter=0;" edge="1" parent="1" source="6AMmz0JQdBcwEtzWQx8X-15" target="6AMmz0JQdBcwEtzWQx8X-27">
          <mxGeometry width="160" relative="1" as="geometry">
            <mxPoint x="390" y="610" as="sourcePoint" />
            <mxPoint x="550" y="610" as="targetPoint" />
          </mxGeometry>
        </mxCell>
        <mxCell id="6AMmz0JQdBcwEtzWQx8X-34" value="&amp;lt;&amp;lt;include&amp;gt;&amp;gt;" style="html=1;verticalAlign=bottom;labelBackgroundColor=none;endArrow=open;endFill=0;dashed=1;rounded=0;entryX=0.5;entryY=1;entryDx=0;entryDy=0;" edge="1" parent="1" source="6AMmz0JQdBcwEtzWQx8X-16" target="6AMmz0JQdBcwEtzWQx8X-27">
          <mxGeometry width="160" relative="1" as="geometry">
            <mxPoint x="450" y="620" as="sourcePoint" />
            <mxPoint x="610" y="620" as="targetPoint" />
          </mxGeometry>
        </mxCell>
        <mxCell id="6AMmz0JQdBcwEtzWQx8X-35" value="&amp;lt;&amp;lt;include&amp;gt;&amp;gt;" style="html=1;verticalAlign=bottom;labelBackgroundColor=none;endArrow=open;endFill=0;dashed=1;rounded=0;exitX=0.5;exitY=1;exitDx=0;exitDy=0;" edge="1" parent="1" source="6AMmz0JQdBcwEtzWQx8X-11" target="6AMmz0JQdBcwEtzWQx8X-27">
          <mxGeometry width="160" relative="1" as="geometry">
            <mxPoint x="560" y="260" as="sourcePoint" />
            <mxPoint x="720" y="260" as="targetPoint" />
          </mxGeometry>
        </mxCell>
        <mxCell id="6AMmz0JQdBcwEtzWQx8X-37" value="&amp;lt;&amp;lt;include&amp;gt;&amp;gt;" style="html=1;verticalAlign=bottom;labelBackgroundColor=none;endArrow=open;endFill=0;dashed=1;rounded=0;exitX=1;exitY=1;exitDx=0;exitDy=0;" edge="1" parent="1" source="6AMmz0JQdBcwEtzWQx8X-10" target="6AMmz0JQdBcwEtzWQx8X-27">
          <mxGeometry width="160" relative="1" as="geometry">
            <mxPoint x="520" y="250" as="sourcePoint" />
            <mxPoint x="680" y="250" as="targetPoint" />
          </mxGeometry>
        </mxCell>
        <mxCell id="6AMmz0JQdBcwEtzWQx8X-38" value="&amp;lt;&amp;lt;extend&amp;gt;&amp;gt;" style="html=1;verticalAlign=bottom;labelBackgroundColor=none;endArrow=open;endFill=0;dashed=1;rounded=0;entryX=0.5;entryY=1;entryDx=0;entryDy=0;exitX=0.308;exitY=-0.005;exitDx=0;exitDy=0;exitPerimeter=0;" edge="1" parent="1" source="6AMmz0JQdBcwEtzWQx8X-27" target="6mHeDIkiS--_ZNNADFWJ-51">
          <mxGeometry width="160" relative="1" as="geometry">
            <mxPoint x="605" y="561" as="sourcePoint" />
            <mxPoint x="509" y="350" as="targetPoint" />
          </mxGeometry>
        </mxCell>
        <mxCell id="6AMmz0JQdBcwEtzWQx8X-39" value="&amp;lt;&amp;lt;extend&amp;gt;&amp;gt;" style="html=1;verticalAlign=bottom;labelBackgroundColor=none;endArrow=open;endFill=0;dashed=1;rounded=0;exitX=0.5;exitY=1;exitDx=0;exitDy=0;entryX=1;entryY=0.5;entryDx=0;entryDy=0;" edge="1" parent="1" source="6AMmz0JQdBcwEtzWQx8X-27" target="6mHeDIkiS--_ZNNADFWJ-48">
          <mxGeometry width="160" relative="1" as="geometry">
            <mxPoint x="650" y="627" as="sourcePoint" />
            <mxPoint x="260" y="840" as="targetPoint" />
          </mxGeometry>
        </mxCell>
      </root>
    </mxGraphModel>
  </diagram>
</mxfile>
